# AST/ASF file generated using VICON BodyLanguage
# -----------------------------------------------
:version 1.10
:name VICON
:units
  mass 1.0
  length 0.45
  angle deg
:documentation
   .ast/.asf automatically generated from VICON data using
   VICON BodyBuilder and BodyLanguage model FoxedUp or BRILLIANT.MOD
:root
   order TX TY TZ RX RY RZ
   axis XYZ
   position 0 0 0  
   orientation 0 0 0 
:bonedata
  begin
     id 1 
     name lhipjoint
     direction 0.661853 -0.702389 0.261917 
     length 2.64193 
     axis 0 0 0  XYZ
  end
  begin
     id 2 
     name lfemur
     direction 0.34202 -0.939693 0  
     length 7.01722  
     axis 0 0 20  XYZ
    dof rx ry rz
    limits (-160.0 20.0)
           (-70.0 70.0)
           (-60.0 70.0)
  end
  begin
     id 3 
     name ltibia
     direction 0.34202 -0.939693 0   
     length 8.25008   
     axis 0 0 20   XYZ
    dof rx
    limits (-10.0 170.0)
  end
  begin
     id 4 
     name lfoot
     direction 0.0709916 -0.195048 0.978221   
     length 2.31941   
     axis -90 7.62852e-016 20   XYZ
    dof rx rz
    limits (-45.0 90.0)
           (-70.0 20.0)
  end
  begin
     id 5 
     name ltoes
     direction 1.53586e-011 -4.22017e-011 1   
     length 1.16486   
     axis -90 7.62852e-016 20   XYZ
    dof rx
    limits (-90.0 20.0)
  end
  begin
     id 6 
     name rhipjoint
     direction -0.638185 -0.721362 0.268992   
     length 2.57244  
     axis 0 0 0  XYZ 
  end
  begin
     id 7 
     name rfemur
     direction -0.34202 -0.939693 0   
     length 7.07017   
     axis 0 0 -20   XYZ
    dof rx ry rz
    limits (-160.0 20.0)
           (-70.0 70.0)
           (-70.0 60.0)
  end
  begin
     id 8 
     name rtibia
     direction -0.34202 -0.939693 0   
     length 8.20386   
     axis 0 0 -20   XYZ
    dof rx
    limits (-10.0 170.0)
 end
 begin
     id 9 
     name rfoot
     direction -0.0822429 -0.225961 0.970658   
     length 2.32215  
     axis -90 -7.62852e-016 -20   XYZ
    dof rx rz
    limits (-45.0 90.0)
           (-20.0 70.0)
  end
  begin
     id 10 
     name rtoes
     direction -1.53597e-011 -4.21689e-011 1   
     length 1.16333   
     axis -90 -7.62852e-016 -20   XYZ
    dof rx
    limits (-90.0 20.0)
  end
  begin
     id 11 
     name lowerback
     direction -0.0131557 0.998589 -0.0514484   
     length 2.14993   
     axis 0 0 0   XYZ
    dof rx ry rz
    limits (-20.0 45.0)
           (-30.0 30.0)
           (-30.0 30.0)
  end
  begin
     id 12 
     name upperback
     direction -0.000776481 0.999993 0.00352685   
     length 2.15301   
     axis 0 0 0   XYZ
    dof rx ry rz
    limits (-20.0 45.0)
           (-30.0 30.0)
           (-30.0 30.0)
  end
  begin
     id 13 
     name thorax
     direction 0.00438186 0.999609 0.0276143   
     length 2.15424   
     axis 0 0 0   XYZ
    dof rx ry rz
    limits (-20.0 45.0)
           (-30.0 30.0)
           (-30.0 30.0)
  end
  begin
     id 14 
     name lowerneck
     direction -0.0488006 0.998094 0.0377807   
     length 1.90481   
     axis 0 0 0   XYZ
    dof rx ry rz
    limits (-20.0 45.0)
           (-30.0 30.0)
           (-30.0 30.0)
  end
  begin
     id 15 
     name upperneck
     direction 0.0443769 0.990702 -0.12861   
     length 1.91305   
     axis 0 0 0   XYZ
    dof rx ry rz
    limits (-20.0 45.0)
           (-30.0 30.0)
           (-30.0 30.0)
  end
  begin
     id 16
     name head
     direction 0.0165599 0.998647 -0.0492982  
     length 1.92369  
     axis 0 0 0   XYZ
    dof rx ry rz
    limits (-20.0 45.0)
           (-30.0 30.0)
           (-30.0 30.0)
  end
  begin
     id 17 
     name lclavicle
     direction 0.911936 0.410197 -0.0105506  
     length 3.52622  
     axis 0 0 0   XYZ
    dof ry rz
    limits (-20.0 10.0)
           (0.0 20.0)
  end
  begin
     id 18 
     name lhumerus
     direction 1 -4.48974e-011 -2.48591e-028   
     length 5.47651   
     axis 180 -30 -90   XYZ
    dof rx ry rz
    limits (-60.0 90.0)
           (-90.0 90.0)
           (-90.0 90.0)
  end
  begin
     id 19
     name lradius
     direction 1 -4.48938e-011 -4.40099e-027   
     length 3.09058   
     axis 180 -30 -90   XYZ
    dof rx
    limits (-10.0 170.0)
  end
  begin
     id 20
     name lwrist
     direction 1 -4.49042e-011 -2.99852e-027   
     length 1.54529   
     axis 1.95339e-015 90 90   XYZ
    dof ry
    limits (-180.0 0.0)
 end
  begin
     id 21 
     name lhand
     direction 1 -4.48815e-011 -5.98193e-027   
     length 0.771611   
     axis 3.82337e-015 90 90   XYZ
    dof rx rz
    limits (-90.0 90.0)
           (-45.0 45.0)
  end
  begin
     id 22 
     name lfingers
     direction 1 -4.49034e-011 -1.1993e-026   
     length 0.622093   
     axis 7.64668e-015 90 90   XYZ
    dof rx
    limits (0.0 90.0)
  end
  begin
     id 23
     name lthumb
     direction 0.707107 -6.34867e-011 0.707107   
     length 0.893204   
     axis -90 45 -1.62303e-014   XYZ
    dof rx rz
    limits (-45.0 45.0)
           (-45.0 45.0)
  end
  begin
     id 24 
     name rclavicle
     direction -0.93442 0.355634 -0.0195692   
     length 3.62463  
     axis 0 0 0   XYZ 
    dof ry rz
    limits (-10.0 20.0)
           (-20.0 0.0)
  end
  begin
     id 25 
     name rhumerus
     direction -1 -4.48957e-011 -1.19147e-027  
     length 5.14182   
     axis 180 30 90   XYZ
    dof rx ry rz
    limits (-90.0 60.0)
           (-90.0 90.0)
           (-90.0 90.0)
  end
  begin
     id 26 
     name rradius
     direction -1 -4.48952e-011 -3.81062e-027   
     length 3.35565   
     axis 180 30 90   XYZ
    dof rx
    limits (-10.0 170.0)
  end
  begin
     id 27 
     name rwrist
     direction -1 -4.48973e-011 -2.99621e-027   
     length 1.67782   
     axis 1.95339e-015 -90 -90   XYZ
    dof ry
    limits (-180.0 0.0)
  end
  begin
     id 28
     name rhand
     direction -1 -4.48895e-011 -5.98727e-027   
     length 0.801042   
     axis 3.82337e-015 -90 -90   XYZ
    dof rx rz
    limits (-90.0 90.0)
           (-45.0 45.0)
  end
  begin
     id 29
     name rfingers
     direction -1 -4.49065e-011 -1.19972e-026   
     length 0.645821   
     axis 7.64668e-015 -90 -90   XYZ
    dof rx
    limits (0.0 90.0)
  end
  begin
     id 30
     name rthumb
     direction -0.707107 -6.34957e-011 0.707107   
     length 0.927273   
     axis -90 -45 1.62303e-014   XYZ
    dof rx rz
    limits (-45.0 45.0)
           (-45.0 45.0)
  end
:hierarchy
  begin
    root lhipjoint rhipjoint lowerback
    lhipjoint lfemur
    lfemur ltibia
    ltibia lfoot
    lfoot ltoes
    rhipjoint rfemur
    rfemur rtibia
    rtibia rfoot
    rfoot rtoes
    lowerback upperback
    upperback thorax
    thorax lowerneck lclavicle rclavicle
    lowerneck upperneck
    upperneck head
    lclavicle lhumerus
    lhumerus lradius
    lradius lwrist
    lwrist lhand lthumb
    lhand lfingers
    rclavicle rhumerus
    rhumerus rradius
    rradius rwrist
    rwrist rhand rthumb
    rhand rfingers
  end

#!OML:ASF E:\Style4\Style4.ASF
:FULLY-SPECIFIED
:DEGREES
532
root -0.112041 17.9696 -1.21581 5.11388 0.744161 2.30616
lowerback 15.9012 2.61047 0.975196
upperback 8.04232 3.55027 -0.0799228
thorax -0.302571 1.80376 -1.18844
lowerneck -2.88428 -4.77969 -3.87087
upperneck -20.6416 -5.74496 5.54392
head -5.45677 -2.89025 2.60183
rclavicle -6.44062e-014 2.62396e-014
rhumerus -43.8221 16.9964 -93.9494
rradius 62.6345
rwrist -19.8312
rhand 1.81285 -7.44796
rfingers 7.12502
rthumb 27.3256 -35.4875
lclavicle -6.44062e-014 2.62396e-014
lhumerus -43.8074 -24.5548 95.0619
lradius 66.2507
lwrist 24.0924
lhand 2.88656 45.0228
lfingers 7.12502
lthumb 28.3522 72.8962
rfemur -18.3852 5.86529 17.0412
rtibia 29.267
rfoot -16.1771 -13.0791
rtoes -7.9926
lfemur -17.3164 -5.74804 -20.114
ltibia 26.6635
lfoot -15.0651 8.68235
ltoes -15.1968
533
root -0.109347 17.9533 -1.18493 4.75625 0.809915 2.29031
lowerback 15.7675 2.58898 0.9908
upperback 8.06942 3.52539 -0.0302749
thorax -0.206951 1.79216 -1.13388
lowerneck -2.341 -4.71699 -3.81635
upperneck -20.5934 -5.71035 5.35119
head -5.54283 -2.86947 2.54599
rclavicle -2.62396e-014 1.11319e-014
rhumerus -43.8464 16.7053 -93.9057
rradius 62.8125
rwrist -19.7353
rhand 1.65495 -7.79402
rfingers 7.12502
rthumb 27.1745 -35.8573
lclavicle -2.62396e-014 1.11319e-014
lhumerus -43.7853 -24.1173 95.0593
lradius 66.2817
lwrist 23.8566
lhand 2.77564 44.9593
lfingers 7.12502
lthumb 28.2461 72.8502
rfemur -18.0648 5.78196 17.1216
rtibia 29.6598
rfoot -16.4612 -13.116
rtoes -8.30998
lfemur -17.017 -5.65242 -20.1637
ltibia 27.0203
lfoot -15.2116 8.62333
ltoes -16.2001
534
root -0.106773 17.9373 -1.15201 4.38409 0.941796 2.27597
lowerback 15.6426 2.55624 1.06445
upperback 8.0849 3.49331 -0.00920572
thorax -0.122813 1.77925 -1.14143
lowerneck -1.73608 -4.68857 -3.83538
upperneck -20.569 -5.70786 5.27344
head -5.63884 -2.86663 2.54161
rclavicle -4.37326e-015 7.95139e-016
rhumerus -43.8983 16.441 -93.9265
rradius 62.9038
rwrist -19.6377
rhand 1.22584 -7.83495
rfingers 7.12502
rthumb 26.764 -35.9617
lclavicle -4.37326e-015 7.95139e-016
lhumerus -43.781 -23.7829 95.0436
lradius 66.3226
lwrist 23.6798
lhand 2.67284 44.9805
lfingers 7.12502
lthumb 28.1479 72.8876
rfemur -17.6981 5.6476 17.21
rtibia 30.0399
rfoot -16.7768 -13.1862
rtoes -8.8717
lfemur -16.6784 -5.64863 -20.2148
ltibia 27.3576
lfoot -15.3552 8.65667
ltoes -17.0635
535
root -0.102377 17.9224 -1.11662 3.9766 1.01389 2.33512
lowerback 15.53 2.56209 1.058
upperback 8.18032 3.50022 0.00502146
thorax 0.0363067 1.78469 -1.11521
lowerneck -1.45963 -4.68598 -3.86078
upperneck -20.4116 -5.73462 5.17536
head -5.63749 -2.87391 2.51963
rclavicle 2.0276e-014 -7.15625e-015
rhumerus -43.8073 16.1304 -93.8472
rradius 62.9434
rwrist -19.524
rhand 0.94995 -7.66055
rfingers 7.12502
rthumb 26.4999 -35.8274
lclavicle 2.0276e-014 -7.15625e-015
lhumerus -43.57 -23.5602 95.0099
lradius 66.2931
lwrist 23.5511
lhand 2.63415 44.9808
lfingers 7.12502
lthumb 28.1109 72.894
rfemur -17.2952 5.53932 17.1971
rtibia 30.4108
rfoot -17.1127 -13.1603
rtoes -8.92144
lfemur -16.2784 -5.605 -20.3618
ltibia 27.7017
lfoot -15.6648 8.60879
ltoes -17.3725
536
root -0.098515 17.906 -1.08099 3.57354 1.04547 2.44896
lowerback 15.4042 2.58391 0.94949
upperback 8.2719 3.51438 0.00141116
thorax 0.193348 1.79077 -1.051
lowerneck -1.26048 -4.64608 -3.76829
upperneck -20.1546 -5.71454 5.00725
head -5.60025 -2.86175 2.44981
rclavicle 9.14409e-015 -1.59028e-015
rhumerus -43.7384 15.7408 -93.8042
rradius 62.9837
rwrist -19.3038
rhand 0.655464 -7.37703
rfingers 7.12502
rthumb 26.218 -35.5861
lclavicle 9.14409e-015 -1.59028e-015
lhumerus -43.3928 -23.3453 94.949
lradius 66.2988
lwrist 23.4552
lhand 2.68055 45.0656
lfingers 7.12502
lthumb 28.1553 72.9715
rfemur -16.8922 5.45582 17.1164
rtibia 30.7735
rfoot -17.4312 -13.0973
rtoes -8.70968
lfemur -15.8803 -5.52207 -20.561
ltibia 28.0436
lfoot -16.0202 8.4573
ltoes -17.1463
537
root -0.0947406 17.8882 -1.04731 3.22362 1.08287 2.48306
lowerback 15.2526 2.59316 0.918423
upperback 8.30478 3.52261 0.00669646
thorax 0.305681 1.79524 -1.02056
lowerneck -0.900766 -4.60503 -3.65501
upperneck -19.9516 -5.69443 4.8507
head -5.60723 -2.85276 2.38647
rclavicle -3.02153e-014 9.54166e-015
rhumerus -43.7009 15.3742 -93.8063
rradius 63.0382
rwrist -19.1643
rhand 0.274503 -7.27286
rfingers 7.12502
rthumb 25.8533 -35.5356
lclavicle -3.02153e-014 9.54166e-015
lhumerus -43.2973 -23.1034 94.8875
lradius 66.3323
lwrist 23.515
lhand 2.61727 45.223
lfingers 7.12502
lthumb 28.0948 73.1389
rfemur -16.574 5.32379 17.1263
rtibia 31.1562
rfoot -17.7083 -13.0786
rtoes -8.98089
lfemur -15.5543 -5.41136 -20.6603
ltibia 28.3798
lfoot -16.3036 8.24377
ltoes -16.6471
538
root -0.0920319 17.8703 -1.01543 2.85968 1.119 2.43814
lowerback 15.1175 2.59773 0.93751
upperback 8.35304 3.53166 0.0594282
thorax 0.425689 1.80068 -0.969189
lowerneck -0.629136 -4.59451 -3.69353
upperneck -19.6918 -5.70436 4.79535
head -5.57189 -2.85427 2.37676
rclavicle 1.47101e-014 -1.98785e-014
rhumerus -43.648 15.0632 -93.7601
rradius 63.1222
rwrist -18.9597
rhand 0.0162375 -7.30634
rfingers 7.12502
rthumb 25.6059 -35.6049
lclavicle 1.47101e-014 -1.98785e-014
lhumerus -43.0914 -22.8336 94.8498
lradius 66.2394
lwrist 23.6528
lhand 2.48767 45.1244
lfingers 7.12502
lthumb 27.9709 73.0605
rfemur -16.25 5.24436 17.2217
rtibia 31.5417
rfoot -18.0626 -13.0331
rtoes -8.89042
lfemur -15.2326 -5.32103 -20.6676
ltibia 28.7273
lfoot -16.5298 8.11738
ltoes -16.6175
539
root -0.0893536 17.8539 -0.98198 2.53752 1.19921 2.44624
lowerback 14.9229 2.58384 0.890544
upperback 8.40075 3.50821 0.126832
thorax 0.570676 1.7875 -0.858187
lowerneck -0.413569 -4.58153 -3.78945
upperneck -19.4247 -5.71028 4.75116
head -5.523 -2.85036 2.37805
rclavicle -4.92986e-014 -5.56597e-015
rhumerus -43.5773 14.8123 -93.6776
rradius 63.1458
rwrist -18.747
rhand -0.198797 -7.15734
rfingers 7.12502
rthumb 25.3999 -35.4853
lclavicle -4.92986e-014 -5.56597e-015
lhumerus -42.9124 -22.5202 94.8598
lradius 66.1681
lwrist 23.7268
lhand 2.25604 44.942
lfingers 7.12502
lthumb 27.7494 72.914
rfemur -15.9439 5.20246 17.2447
rtibia 31.9093
rfoot -18.4894 -12.9521
rtoes -8.30592
lfemur -14.9422 -5.33516 -20.7255
ltibia 29.0767
lfoot -16.8434 8.03951
ltoes -16.6556
540
root -0.0850796 17.8389 -0.942857 2.21647 1.25698 2.47636
lowerback 14.6885 2.55779 0.821417
upperback 8.43799 3.4657 0.168372
thorax 0.725628 1.76446 -0.757721
lowerneck -0.160969 -4.52622 -3.75535
upperneck -19.2084 -5.6636 4.6329
head -5.5053 -2.82465 2.33544
rclavicle 7.15625e-015 3.97569e-015
rhumerus -43.5325 14.698 -93.6724
rradius 63.1082
rwrist -18.629
rhand -0.543935 -6.99948
rfingers 7.12502
rthumb 25.0693 -35.3741
lclavicle 7.15625e-015 3.97569e-015
lhumerus -42.8089 -22.1568 94.8446
lradius 66.1513
lwrist 23.7515
lhand 2.11336 44.797
lfingers 7.12502
lthumb 27.613 72.7909
rfemur -15.6015 5.10619 17.2428
rtibia 32.2531
rfoot -18.8781 -12.8602
rtoes -8.18532
lfemur -14.6195 -5.27437 -20.824
ltibia 29.4059
lfoot -17.125 7.95273
ltoes -16.7685
541
root -0.0805115 17.8231 -0.903546 1.86134 1.28303 2.48037
lowerback 14.5441 2.53736 0.802674
upperback 8.42884 3.43689 0.175129
thorax 0.789822 1.74989 -0.729572
lowerneck 0.193673 -4.47251 -3.69829
upperneck -18.9594 -5.60894 4.5909
head -5.49283 -2.8025 2.31457
rclavicle -2.34566e-014 -1.27222e-014
rhumerus -43.5837 14.5717 -93.7754
rradius 63.0372
rwrist -18.585
rhand -0.970447 -6.80271
rfingers 7.12502
rthumb 24.6605 -35.2338
lclavicle -2.34566e-014 -1.27222e-014
lhumerus -42.7498 -21.8382 94.8035
lradius 66.0212
lwrist 23.7996
lhand 2.0746 44.9238
lfingers 7.12502
lthumb 27.5759 72.9236
rfemur -15.225 5.00884 17.2745
rtibia 32.5645
rfoot -19.1458 -12.8323
rtoes -8.56476
lfemur -14.2526 -5.15413 -20.8954
ltibia 29.7076
lfoot -17.3856 7.82797
ltoes -16.8792
542
root -0.0765406 17.8038 -0.86454 1.51497 1.27215 2.54304
lowerback 14.3771 2.55299 0.718336
upperback 8.43538 3.44741 0.17334
thorax 0.880032 1.75305 -0.677322
lowerneck 0.557844 -4.45418 -3.69199
upperneck -18.6974 -5.59872 4.59577
head -5.47298 -2.80202 2.31824
rclavicle 0 -1.82882e-014
rhumerus -43.5705 14.3518 -93.7893
rradius 62.9813
rwrist -18.5605
rhand -1.26063 -6.78932
rfingers 7.12502
rthumb 24.3824 -35.2581
lclavicle 0 -1.82882e-014
lhumerus -42.6523 -21.5503 94.7845
lradius 65.8403
lwrist 23.7994
lhand 2.01535 44.7198
lfingers 7.12502
lthumb 27.5193 72.7287
rfemur -14.8452 4.89575 17.2498
rtibia 32.8196
rfoot -19.3323 -12.8805
rtoes -9.00843
lfemur -13.8802 -5.01294 -21.0266
ltibia 30.0107
lfoot -17.6972 7.7148
ltoes -17.0158
543
root -0.0742928 17.7842 -0.825654 1.15758 1.27189 2.60831
lowerback 14.2303 2.57666 0.628853
upperback 8.44525 3.46826 0.161411
thorax 0.96369 1.76138 -0.63491
lowerneck 0.867101 -4.45946 -3.63431
upperneck -18.3895 -5.62105 4.56958
head -5.43098 -2.81866 2.30245
rclavicle -3.89618e-014 1.74931e-014
rhumerus -43.4933 14.079 -93.7851
rradius 62.8856
rwrist -18.657
rhand -1.50379 -6.79166
rfingers 7.12502
rthumb 24.1492 -35.2916
lclavicle -3.89618e-014 1.74931e-014
lhumerus -42.5518 -21.2667 94.7327
lradius 65.7611
lwrist 23.6814
lhand 2.01824 44.4864
lfingers 7.12502
lthumb 27.522 72.4948
rfemur -14.4581 4.84745 17.2188
rtibia 33.0274
rfoot -19.6346 -12.9352
rtoes -9.03273
lfemur -13.5069 -4.89804 -21.1547
ltibia 30.326
lfoot -17.9621 7.64053
ltoes -17.1363
544
root -0.0718423 17.7674 -0.788837 0.821727 1.32961 2.58635
lowerback 14.0741 2.56001 0.640174
upperback 8.42454 3.44832 0.172157
thorax 1.0239 1.75209 -0.620495
lowerneck 1.2697 -4.45351 -3.59019
upperneck -18.1035 -5.63371 4.52959
head -5.41232 -2.82915 2.28753
rclavicle -3.67752e-014 -7.95139e-016
rhumerus -43.4421 13.841 -93.8061
rradius 62.7549
rwrist -18.8201
rhand -1.80963 -6.77088
rfingers 7.12502
rthumb 23.856 -35.3094
lclavicle -3.67752e-014 -7.95139e-016
lhumerus -42.4932 -20.9233 94.6692
lradius 65.7451
lwrist 23.5456
lhand 2.185 44.6483
lfingers 7.12502
lthumb 27.6815 72.6312
rfemur -14.0608 4.8283 17.2775
rtibia 33.1968
rfoot -19.9458 -12.9693
rtoes -8.9767
lfemur -13.1827 -4.84091 -21.1728
ltibia 30.6494
lfoot -18.188 7.48471
ltoes -17.008
545
root -0.0677312 17.7528 -0.751279 0.512216 1.37718 2.47437
lowerback 13.8556 2.54232 0.755793
upperback 8.40182 3.43846 0.212132
thorax 1.11973 1.75105 -0.63226
lowerneck 1.63744 -4.43553 -3.57826
upperneck -17.7813 -5.62667 4.51519
head -5.37558 -2.8294 2.28314
rclavicle -9.74045e-015 -1.11319e-014
rhumerus -43.4018 13.5772 -93.8
rradius 62.5785
rwrist -18.9251
rhand -2.06194 -6.49908
rfingers 7.12502
rthumb 23.614 -35.069
lclavicle -9.74045e-015 -1.11319e-014
lhumerus -42.457 -20.6841 94.6622
lradius 65.7101
lwrist 23.5922
lhand 2.08869 44.618
lfingers 7.12502
lthumb 27.5894 72.6156
rfemur -13.6377 4.73386 17.4318
rtibia 33.3333
rfoot -20.1745 -12.944
rtoes -8.93009
lfemur -12.8761 -4.79982 -21.0985
ltibia 30.9773
lfoot -18.4798 7.41571
ltoes -17.3462
546
root -0.0651829 17.7398 -0.713531 0.24781 1.39489 2.36296
lowerback 13.6115 2.54543 0.836896
upperback 8.36398 3.4513 0.251017
thorax 1.21166 1.76002 -0.62793
lowerneck 1.99055 -4.42705 -3.47986
upperneck -17.4984 -5.63669 4.42481
head -5.35336 -2.838 2.24244
rclavicle -7.63333e-014 1.59028e-015
rhumerus -43.3622 13.3044 -93.8089
rradius 62.35
rwrist -19.0818
rhand -2.45047 -6.00424
rfingers 7.12502
rthumb 23.2413 -34.6217
lclavicle -7.63333e-014 1.59028e-015
lhumerus -42.4018 -20.538 94.685
lradius 65.6041
lwrist 23.6778
lhand 1.81479 44.152
lfingers 7.12502
lthumb 27.3274 72.1913
rfemur -13.3023 4.67445 17.5789
rtibia 33.4638
rfoot -20.503 -12.8739
rtoes -8.65249
lfemur -12.6094 -4.7922 -21.014
ltibia 31.2916
lfoot -18.8493 7.431
ltoes -17.5594
